HIERARCHY
ROOT Hips
{
  OFFSET 5.84602e-005 68.8428 3.50346
  CHANNELS 6 Xposition Yposition Zposition Zrotation Xrotation Yrotation
  JOINT Spine
  {
    OFFSET 0 8.597 -4.6522
    CHANNELS 3 Zrotation Xrotation Yrotation
    JOINT Spine1
    {
      OFFSET 0 7.8454 0.4098
      CHANNELS 3 Zrotation Xrotation Yrotation
      JOINT Spine2
      {
        OFFSET 0 9.7078 -2.1609
        CHANNELS 3 Zrotation Xrotation Yrotation
        JOINT Neck
        {
          OFFSET 0 21.8761 -0.4549
          CHANNELS 3 Zrotation Xrotation Yrotation
          JOINT Head
          {
            OFFSET 0 12.3537 3.3602
            CHANNELS 3 Zrotation Xrotation Yrotation
            End Site
            {
              OFFSET 0.0001 18.9506 0.5657
            }
          }
        }
        JOINT LeftShoulder
        {
          OFFSET 2.2086 21.1115 7.2329
          CHANNELS 3 Zrotation Xrotation Yrotation
          JOINT LeftArm
          {
            OFFSET 13.1193 3.0282 -4.8998
            CHANNELS 3 Zrotation Xrotation Yrotation
            JOINT LeftForeArm
            {
              OFFSET 27.4081 -0.0973053 -0.2375
              CHANNELS 3 Zrotation Xrotation Yrotation
              JOINT LeftHand
              {
                OFFSET 22.8641 0.0662994 -0.1369
                CHANNELS 3 Zrotation Xrotation Yrotation
                JOINT LeftHandIndex1
                {
                  OFFSET 8.8614 0.775009 2.4612
                  CHANNELS 3 Zrotation Xrotation Yrotation
                  JOINT LeftHandIndex2
                  {
                    OFFSET 3.3146 -0.808304 0.5841
                    CHANNELS 3 Zrotation Xrotation Yrotation
                    JOINT LeftHandIndex3
                    {
                      OFFSET 2.2628 -0.552002 0.3989
                      CHANNELS 3 Zrotation Xrotation Yrotation
                      End Site
                      {
                        OFFSET 1.6102 -0.4807 0.2612
                      }
                    }
                  }
                }
                JOINT LeftHandMiddle1
                {
                  OFFSET 8.9937 0.895004 0.2143
                  CHANNELS 3 Zrotation Xrotation Yrotation
                  JOINT LeftHandMiddle2
                  {
                    OFFSET 4.0984 0.0113983 -0.0242
                    CHANNELS 3 Zrotation Xrotation Yrotation
                    JOINT LeftHandMiddle3
                    {
                      OFFSET 2.2716 0.00689697 -0.0138001
                      CHANNELS 3 Zrotation Xrotation Yrotation
                      End Site
                      {
                        OFFSET 2.0404 -0.1441 0.0027
                      }
                    }
                  }
                }
                JOINT LeftHandRing1
                {
                  OFFSET 8.5234 0.597198 -2.0164
                  CHANNELS 3 Zrotation Xrotation Yrotation
                  JOINT LeftHandRing2
                  {
                    OFFSET 3.7188 -0.188293 -0.2328
                    CHANNELS 3 Zrotation Xrotation Yrotation
                    JOINT LeftHandRing3
                    {
                      OFFSET 2.1191 -0.106598 -0.1332
                      CHANNELS 3 Zrotation Xrotation Yrotation
                      End Site
                      {
                        OFFSET 1.8737 -0.2304 -0.0886
                      }
                    }
                  }
                }
                JOINT LeftHandPinky1
                {
                  OFFSET 7.9094 -0.601089 -3.4825
                  CHANNELS 3 Zrotation Xrotation Yrotation
                  JOINT LeftHandPinky2
                  {
                    OFFSET 2.2874 -0.477005 -0.6314
                    CHANNELS 3 Zrotation Xrotation Yrotation
                    JOINT LeftHandPinky3
                    {
                      OFFSET 1.6774 -0.349396 -0.4633
                      CHANNELS 3 Zrotation Xrotation Yrotation
                      End Site
                      {
                        OFFSET 1.4888 -0.4091 -0.3416
                      }
                    }
                  }
                }
                JOINT LeftHandThumb1
                {
                  OFFSET 1.833 -1.3875 1.3896
                  CHANNELS 3 Zrotation Xrotation Yrotation
                  JOINT LeftHandThumb2
                  {
                    OFFSET 3.4129 -1.121 2.5732
                    CHANNELS 3 Zrotation Xrotation Yrotation
                    JOINT LeftHandThumb3
                    {
                      OFFSET 2.2474 -0.804199 1.6192
                      CHANNELS 3 Zrotation Xrotation Yrotation
                      End Site
                      {
                        OFFSET 1.6527 -0.5689 1.1317
                      }
                    }
                  }
                }
              }
            }
          }
        }
        JOINT RightShoulder
        {
          OFFSET -2.2086 21.1115 7.2329
          CHANNELS 3 Zrotation Xrotation Yrotation
          JOINT RightArm
          {
            OFFSET -13.1216 3.0287 -4.9007
            CHANNELS 3 Zrotation Xrotation Yrotation
            JOINT RightForeArm
            {
              OFFSET -27.4081 -0.0973053 -0.2375
              CHANNELS 3 Zrotation Xrotation Yrotation
              JOINT RightHand
              {
                OFFSET -22.8641 0.0664063 -0.1369
                CHANNELS 3 Zrotation Xrotation Yrotation
                JOINT RightHandIndex1
                {
                  OFFSET -8.8614 0.774994 2.4612
                  CHANNELS 3 Zrotation Xrotation Yrotation
                  JOINT RightHandIndex2
                  {
                    OFFSET -3.3146 -0.808304 0.5841
                    CHANNELS 3 Zrotation Xrotation Yrotation
                    JOINT RightHandIndex3
                    {
                      OFFSET -2.2628 -0.552002 0.3989
                      CHANNELS 3 Zrotation Xrotation Yrotation
                      End Site
                      {
                        OFFSET -1.6102 -0.4807 0.2612
                      }
                    }
                  }
                }
                JOINT RightHandMiddle1
                {
                  OFFSET -8.9937 0.894989 0.2143
                  CHANNELS 3 Zrotation Xrotation Yrotation
                  JOINT RightHandMiddle2
                  {
                    OFFSET -4.0984 0.0113983 -0.0242
                    CHANNELS 3 Zrotation Xrotation Yrotation
                    JOINT RightHandMiddle3
                    {
                      OFFSET -2.2716 0.00691223 -0.0138001
                      CHANNELS 3 Zrotation Xrotation Yrotation
                      End Site
                      {
                        OFFSET -2.0404 -0.1441 0.0027
                      }
                    }
                  }
                }
                JOINT RightHandRing1
                {
                  OFFSET -8.5234 0.597198 -2.0164
                  CHANNELS 3 Zrotation Xrotation Yrotation
                  JOINT RightHandRing2
                  {
                    OFFSET -3.7188 -0.188309 -0.2328
                    CHANNELS 3 Zrotation Xrotation Yrotation
                    JOINT RightHandRing3
                    {
                      OFFSET -2.1191 -0.106598 -0.1332
                      CHANNELS 3 Zrotation Xrotation Yrotation
                      End Site
                      {
                        OFFSET -1.8737 -0.2304 -0.0886
                      }
                    }
                  }
                }
                JOINT RightHandPinky1
                {
                  OFFSET -7.9094 -0.601105 -3.4825
                  CHANNELS 3 Zrotation Xrotation Yrotation
                  JOINT RightHandPinky2
                  {
                    OFFSET -2.2874 -0.477005 -0.6314
                    CHANNELS 3 Zrotation Xrotation Yrotation
                    JOINT RightHandPinky3
                    {
                      OFFSET -1.6774 -0.349396 -0.4633
                      CHANNELS 3 Zrotation Xrotation Yrotation
                      End Site
                      {
                        OFFSET -1.4888 -0.4091 -0.3416
                      }
                    }
                  }
                }
                JOINT RightHandThumb1
                {
                  OFFSET -1.833 -1.38751 1.3896
                  CHANNELS 3 Zrotation Xrotation Yrotation
                  JOINT RightHandThumb2
                  {
                    OFFSET -3.41299 -1.12099 2.5732
                    CHANNELS 3 Zrotation Xrotation Yrotation
                    JOINT RightHandThumb3
                    {
                      OFFSET -2.24741 -0.804108 1.6192
                      CHANNELS 3 Zrotation Xrotation Yrotation
                      End Site
                      {
                        OFFSET -1.6527 -0.5689 1.1317
                      }
                    }
                  }
                }
              }
            }
          }
        }
      }
    }
  }
  JOINT RightUpLeg
  {
    OFFSET -9.1966 3.8861 -0.7581
    CHANNELS 3 Zrotation Xrotation Yrotation
    JOINT RightLeg
    {
      OFFSET -0.7359 -41.0265 0
      CHANNELS 3 Zrotation Xrotation Yrotation
      JOINT RightFoot
      {
        OFFSET 0 -40.2855 0
        CHANNELS 3 Zrotation Xrotation Yrotation
        JOINT RightToeBase
        {
          OFFSET 0 -5.6122 11.7359
          CHANNELS 3 Zrotation Xrotation Yrotation
          End Site
          {
            OFFSET 0 0 7.8731
          }
        }
      }
    }
  }
  JOINT LeftUpLeg
  {
    OFFSET 9.1965 3.8864 -0.7581
    CHANNELS 3 Zrotation Xrotation Yrotation
    JOINT LeftLeg
    {
      OFFSET 0.7359 -41.0268 0
      CHANNELS 3 Zrotation Xrotation Yrotation
      JOINT LeftFoot
      {
        OFFSET 0 -40.2855 0
        CHANNELS 3 Zrotation Xrotation Yrotation
        JOINT LeftToeBase
        {
          OFFSET 0 -5.6122 11.7359
          CHANNELS 3 Zrotation Xrotation Yrotation
          End Site
          {
            OFFSET 0 0 7.8731
          }
        }
      }
    }
  }
}
MOTION
Frames:	6
Frame Time:	0.0333333
-5.85834 26.0619 0.668811 -2.08069e-015 35.1251 180 -0.930757 7.27436 -0.121126 -1.86877 14.5497 -0.12349 -1.86877 14.5497 -0.123489 14.9777 -20.6118 -14.6207 10.0631 -34.4846 23.9256 -21.1937 -18.5865 -25.9029 -10.6232 -21.6495 -22.3995 -20.6011 7.18485 -38.3319 -50.6044 -13.9904 4.35004 -5.72376e-007 3.97099e-007 4.86741e-007 -5.72376e-007 3.97099e-007 4.86741e-007 -5.72376e-007 3.97099e-007 4.86741e-007 -5.72376e-007 3.97099e-007 4.86741e-007 -0.0147025 -8.84249e-005 3.712e-006 -5.72386e-007 3.97036e-007 4.86793e-007 -5.72376e-007 3.97099e-007 4.86741e-007 -0.0187775 -0.00117487 5.76674e-005 -5.72384e-007 3.97018e-007 4.86812e-007 -5.72376e-007 3.97099e-007 4.86741e-007 -0.0122404 -0.00324021 0.000668625 -5.72369e-007 3.97048e-007 4.868e-007 -5.72376e-007 3.97099e-007 4.86741e-007 -5.72376e-007 3.97099e-007 4.86741e-007 -5.72376e-007 3.97099e-007 4.86741e-007 14.5739 -18.8965 23.3169 15.4461 -16.0727 42.8546 19.0806 9.07462 51.7155 31.9735 -23.8714 21.5287 3.00208e-006 9.02062e-007 -1.23117e-006 1.50104e-006 4.51031e-007 -6.15586e-007 3.00208e-006 9.02062e-007 -1.23117e-006 3.00208e-006 9.02062e-007 -1.23117e-006 0.0150443 -9.38777e-005 -6.84397e-006 3.00216e-006 9.01901e-007 -1.23129e-006 3.00208e-006 9.02062e-007 -1.23117e-006 0.0190684 -0.00119359 -5.73035e-005 3.00216e-006 9.01853e-007 -1.23135e-006 3.00208e-006 9.02062e-007 -1.23117e-006 0.0124011 -0.00327993 -0.000683945 3.0021e-006 9.01931e-007 -1.23136e-006 3.00208e-006 9.02062e-007 -1.23117e-006 1.50104e-006 4.51031e-007 -6.15586e-007 3.00208e-006 9.02062e-007 -1.23117e-006 -99.3261 -40.3368 -71.0212 -176.948 56.8532 -141.675 7.01984 39.7581 -44.4658 -1.46154e-006 -4.35862e-006 -1.29516e-006 98.2689 -41.1201 69.5599 177.264 63.5273 140.765 -14.0567 45.7637 46.249 1.3181e-006 -4.40154e-007 4.96814e-007 
-5.85872 26.1446 0.61295 -2.14912e-015 34.7496 180 -0.92952 7.09401 -0.127396 -1.86472 14.1891 -0.139378 -1.86472 14.1891 -0.139377 14.9396 -20.2322 -14.729 9.96312 -34.3276 23.7698 -21.4528 -18.0875 -25.9376 -10.6232 -21.6495 -22.3995 -20.509 7.111 -38.1055 -50.6503 -13.6324 4.47181 1.14618e-006 -7.93448e-007 -9.72589e-007 8.82781e-032 3.18055e-015 -1.59028e-015 -1.15865e-031 -2.38542e-015 -2.78299e-015 1.14618e-006 -7.93448e-007 -9.72589e-007 -0.0146284 -8.30002e-005 -1.85685e-006 -4.96564e-032 -3.57812e-015 -7.95139e-016 1.14618e-006 -7.93448e-007 -9.72589e-007 -0.0187366 -0.00116301 5.59627e-005 -5.24151e-031 -3.97569e-015 -7.55382e-015 1.14618e-006 -7.93448e-007 -9.72589e-007 -0.0122221 -0.00323571 0.000674281 -6.36111e-015 1.70955e-014 1.03368e-014 1.14618e-006 -7.93448e-007 -9.72589e-007 8.82781e-032 3.18055e-015 -1.59028e-015 -1.15865e-031 -2.38542e-015 -2.78299e-015 14.6994 -17.9397 23.641 15.4461 -16.0727 42.8546 18.8739 8.80858 50.8669 32.0955 -23.1238 21.9583 3.33255e-006 3.34026e-006 2.33749e-006 2.73165e-006 -1.13575e-007 2.38847e-006 3.75764e-006 5.37012e-006 2.98827e-006 3.33255e-006 3.34026e-006 2.33749e-006 0.0150363 -9.10812e-005 2.66161e-007 3.7561e-006 5.37052e-006 2.98757e-006 3.33255e-006 3.34026e-006 2.33749e-006 0.0189644 -0.00118848 -5.86472e-005 3.33302e-006 3.34062e-006 2.3369e-006 3.33255e-006 3.34026e-006 2.33749e-006 0.0120977 -0.00320219 -0.000662393 3.75645e-006 5.37078e-006 2.98767e-006 3.33255e-006 3.34026e-006 2.33749e-006 2.73165e-006 -1.13575e-007 2.38847e-006 3.75764e-006 5.37012e-006 2.98827e-006 -98.8434 -40.3705 -70.71 -176.963 57.1346 -141.625 7.20599 39.4087 -44.532 1.40466e-006 7.38876e-007 6.29763e-007 97.9087 -40.9574 69.2786 177.273 63.6991 140.734 -13.8941 45.308 46.0259 1.57781e-006 -8.07808e-007 7.40199e-007 
-5.85909 26.2275 0.557331 -2.21693e-015 34.3741 180 -0.928277 6.91369 -0.133646 -1.86074 13.8286 -0.155194 -1.86074 13.8286 -0.155195 14.9027 -19.8523 -14.8367 9.86379 -34.1704 23.6146 -21.7108 -17.5883 -25.9698 -10.6232 -21.6495 -22.3995 -20.4165 7.03754 -37.879 -50.6969 -13.2745 4.5937 1.14762e-006 -7.92694e-007 -9.71687e-007 1.14762e-006 -7.92694e-007 -9.71687e-007 5.7381e-007 -3.96347e-007 -4.85843e-007 1.14762e-006 -7.92694e-007 -9.71687e-007 -0.0146342 -8.80287e-005 2.59376e-007 1.79211e-006 -1.24603e-006 6.08826e-007 1.14762e-006 -7.92694e-007 -9.71687e-007 -0.0187096 -0.00117696 5.90077e-005 5.73818e-007 -3.96267e-007 -4.85914e-007 1.14762e-006 -7.92694e-007 -9.71687e-007 -0.0122274 -0.00323675 0.000675807 -6.44264e-007 4.53109e-007 -1.58054e-006 1.14762e-006 -7.92694e-007 -9.71687e-007 1.14762e-006 -7.92694e-007 -9.71687e-007 5.7381e-007 -3.96347e-007 -4.85843e-007 14.8186 -16.9825 23.9612 15.4461 -16.0727 42.8546 18.6635 8.54566 50.0182 32.2108 -22.3755 22.3839 3.74719e-006 5.36456e-006 2.98447e-006 3.18055e-015 -9.54166e-015 -3.18055e-015 3.33377e-006 3.3433e-006 2.33732e-006 3.74719e-006 5.36456e-006 2.98447e-006 0.014979 -9.2008e-005 -2.73374e-006 3.33413e-006 3.34361e-006 2.33688e-006 3.74719e-006 5.36456e-006 2.98447e-006 0.0190905 -0.00119527 -5.35517e-005 3.33424e-006 3.34367e-006 2.33673e-006 3.74719e-006 5.36456e-006 2.98447e-006 0.0122337 -0.00323841 -0.000675249 3.33411e-006 3.3435e-006 2.33685e-006 3.74719e-006 5.36456e-006 2.98447e-006 3.18055e-015 -9.54166e-015 -3.18055e-015 3.33377e-006 3.3433e-006 2.33732e-006 -98.3603 -40.4024 -70.3986 -176.978 57.416 -141.575 7.39061 39.0591 -44.5965 -6.85722e-007 3.22416e-006 3.34912e-007 97.5505 -40.7936 68.9994 177.282 63.8711 140.703 -13.7354 44.8521 45.8066 -3.47149e-007 4.13888e-007 -2.84795e-007 
-5.85944 26.3104 0.501953 -2.28413e-015 33.9986 180 -0.927048 6.73334 -0.139883 -1.85687 13.4681 -0.170947 -1.85687 13.4681 -0.170948 14.8666 -19.4722 -14.944 9.76511 -34.0128 23.46 -21.9678 -17.089 -25.9996 -10.6232 -21.6495 -22.3995 -20.3238 6.96442 -37.6525 -50.7442 -12.9168 4.71573 -1.94155e-006 -3.21133e-007 -2.29815e-006 1.94155e-006 3.21133e-007 2.29815e-006 -3.18055e-015 3.97569e-015 3.97569e-015 -1.94155e-006 -3.21133e-007 -2.29815e-006 -0.0146333 -9.58914e-005 4.6165e-006 9.54166e-015 -3.57812e-015 -7.95139e-015 -1.94155e-006 -3.21133e-007 -2.29815e-006 -0.0187393 -0.00117331 6.4738e-005 -6.36111e-015 -1.59028e-015 -1.19271e-015 -1.94155e-006 -3.21133e-007 -2.29815e-006 -0.0123192 -0.00325554 0.000676546 0 3.97569e-015 -0 -1.94155e-006 -3.21133e-007 -2.29815e-006 1.94155e-006 3.21133e-007 2.29815e-006 -3.18055e-015 3.97569e-015 3.97569e-015 14.9316 -16.0252 24.2775 15.4461 -16.0727 42.8546 18.4493 8.28596 49.1693 32.3194 -21.6266 22.8054 -1.50309e-006 -4.49371e-007 6.13707e-007 -1.50309e-006 -4.49371e-007 6.13707e-007 -1.50309e-006 -4.49371e-007 6.13707e-007 -1.50309e-006 -4.49371e-007 6.13707e-007 0.0149135 -9.3132e-005 3.83472e-006 -1.50313e-006 -4.49291e-007 6.13767e-007 -1.50309e-006 -4.49371e-007 6.13707e-007 0.0190668 -0.00119413 -6.09286e-005 -1.50313e-006 -4.49267e-007 6.13798e-007 -1.50309e-006 -4.49371e-007 6.13707e-007 0.0122959 -0.00325052 -0.000680629 -1.5031e-006 -4.49306e-007 6.13799e-007 -1.50309e-006 -4.49371e-007 6.13707e-007 -1.50309e-006 -4.49371e-007 6.13707e-007 -1.50309e-006 -4.49371e-007 6.13707e-007 -97.877 -40.4324 -70.0869 -176.993 57.6971 -141.525 7.5739 38.7093 -44.6593 -1.42285e-006 -4.32873e-006 -1.28467e-006 97.1946 -40.6286 68.7226 177.291 64.0429 140.672 -13.5804 44.396 45.5909 7.21889e-009 4.70085e-007 -2.41056e-007 
-5.85978 26.3934 0.446821 -2.35073e-015 33.6232 180 -0.92587 6.55305 -0.146115 -1.85317 13.1076 -0.186653 -1.85317 13.1076 -0.186654 14.8319 -19.092 -15.0508 9.66707 -33.8549 23.3059 -22.2238 -16.5897 -26.027 -10.6232 -21.6495 -22.3995 -20.2308 6.89171 -37.4259 -50.7922 -12.5592 4.83782 -5.75271e-007 3.95582e-007 4.8493e-007 -1.15054e-006 7.91163e-007 9.6986e-007 2.51499e-006 -7.68124e-008 1.81615e-006 -5.75271e-007 3.95582e-007 4.8493e-007 -0.0146696 -9.46048e-005 7.08057e-007 2.51521e-006 -7.70435e-008 1.81614e-006 -5.75271e-007 3.95582e-007 4.8493e-007 -0.018766 -0.00117844 6.32406e-005 2.51528e-006 -7.70941e-008 1.81611e-006 -5.75271e-007 3.95582e-007 4.8493e-007 -0.0122654 -0.00324845 0.000675107 1.8614e-006 4.03634e-007 2.26082e-007 -5.75271e-007 3.95582e-007 4.8493e-007 -1.15054e-006 7.91163e-007 9.6986e-007 2.51499e-006 -7.68124e-008 1.81615e-006 15.0385 -15.0678 24.5903 15.4461 -16.0727 42.8546 18.2316 8.02957 48.3206 32.4215 -20.8774 23.223 -1.50379e-006 -4.48962e-007 6.13069e-007 4.23371e-006 3.43244e-007 1.78144e-006 3.28213e-007 2.4529e-006 3.56226e-006 -1.50379e-006 -4.48962e-007 6.13069e-007 0.014981 -8.77079e-005 3.83108e-006 3.28493e-007 2.45336e-006 3.56194e-006 -1.50379e-006 -4.48962e-007 6.13069e-007 0.0190453 -0.00119382 -5.79193e-005 3.28602e-007 2.45347e-006 3.56185e-006 -1.50379e-006 -4.48962e-007 6.13069e-007 0.0122847 -0.00325398 -0.000675575 3.28527e-007 2.45322e-006 3.56197e-006 -1.50379e-006 -4.48962e-007 6.13069e-007 4.23371e-006 3.43244e-007 1.78144e-006 3.28213e-007 2.4529e-006 3.56226e-006 -97.3933 -40.4605 -69.775 -177.009 57.9782 -141.475 7.75563 38.3594 -44.7204 5.26621e-007 2.75963e-007 2.37747e-007 96.8408 -40.4624 68.448 177.301 64.2147 140.64 -13.4291 43.9396 45.3787 7.88967e-007 -4.03978e-007 3.6989e-007 
-5.8601 26.4765 0.391931 -2.41675e-015 33.2478 180 -0.924707 6.3728 -0.152332 -1.84958 12.7472 -0.202299 -1.84958 12.7472 -0.2023 14.7972 -18.7114 -15.1572 9.56967 -33.6967 23.1523 -22.4788 -16.0905 -26.052 -10.6232 -21.6495 -22.3995 -20.1375 6.81934 -37.1992 -50.8409 -12.2017 4.96008 1.72803e-006 -1.18558e-006 -1.4534e-006 1.15202e-006 -7.90388e-007 -9.68935e-007 1.72803e-006 -1.18558e-006 -1.4534e-006 1.72803e-006 -1.18558e-006 -1.4534e-006 -0.0146526 -8.63226e-005 1.08823e-006 1.72806e-006 -1.1854e-006 -1.45356e-006 1.72803e-006 -1.18558e-006 -1.4534e-006 -0.0187296 -0.00116969 6.17766e-005 1.72806e-006 -1.18534e-006 -1.45361e-006 1.72803e-006 -1.18558e-006 -1.4534e-006 -0.012345 -0.00326395 0.000678327 1.72801e-006 -1.18543e-006 -1.45358e-006 1.72803e-006 -1.18558e-006 -1.4534e-006 1.15202e-006 -7.90388e-007 -9.68935e-007 1.72803e-006 -1.18558e-006 -1.4534e-006 15.1395 -14.1107 24.8996 15.4461 -16.0727 42.8546 18.0103 7.77657 47.4719 32.5173 -20.1279 23.637 3.18055e-015 9.54166e-015 3.18055e-015 -3.18055e-015 1.27222e-014 6.36111e-015 -1.76556e-031 3.18055e-015 3.18055e-015 3.18055e-015 9.54166e-015 3.18055e-015 0.015005 -9.42023e-005 -9.11583e-006 3.18055e-015 -9.54166e-015 -0 3.18055e-015 9.54166e-015 3.18055e-015 0.0189782 -0.00118475 -5.84895e-005 3.693e-007 1.99297e-006 6.41137e-007 3.18055e-015 9.54166e-015 3.18055e-015 0.012365 -0.00327163 -0.000675216 -3.18055e-015 3.18055e-015 -0 3.18055e-015 9.54166e-015 3.18055e-015 -3.18055e-015 1.27222e-014 6.36111e-015 -1.76556e-031 3.18055e-015 3.18055e-015 -96.9093 -40.4868 -69.463 -177.026 58.2592 -141.424 7.93602 38.0093 -44.7799 5.26577e-007 2.75587e-007 2.38279e-007 96.4892 -40.2951 68.1756 177.31 64.3865 140.609 -13.2815 43.4831 45.1698 1.57796e-006 -8.0803e-007 7.39638e-007 
